<mxfile host="app.diagrams.net" modified="2023-03-31T08:07:00.386Z" agent="5.0 (Windows NT 10.0; Win64; x64) AppleWebKit/537.36 (KHTML, like Gecko) Chrome/111.0.0.0 Safari/537.36 Edg/111.0.1661.54" etag="8VX20Sua8H8jKQ3FtJK3" version="20.8.20" type="github">
  <diagram name="第 1 页" id="yQ06iRWflpRtdEBJHhxI">
    <mxGraphModel dx="2026" dy="1115" grid="1" gridSize="10" guides="1" tooltips="1" connect="1" arrows="1" fold="1" page="1" pageScale="1" pageWidth="827" pageHeight="1169" math="0" shadow="0">
      <root>
        <mxCell id="0" />
        <mxCell id="1" parent="0" />
        <mxCell id="XbdNVZJF1_j_4Jo6nYeP-6" value="" style="edgeStyle=orthogonalEdgeStyle;rounded=0;orthogonalLoop=1;jettySize=auto;html=1;fontSize=20;" edge="1" parent="1" source="XbdNVZJF1_j_4Jo6nYeP-1" target="XbdNVZJF1_j_4Jo6nYeP-5">
          <mxGeometry relative="1" as="geometry" />
        </mxCell>
        <mxCell id="XbdNVZJF1_j_4Jo6nYeP-1" value="&lt;font style=&quot;font-size: 20px;&quot;&gt;密码/指纹/人脸登录验证身份&lt;/font&gt;" style="rounded=0;whiteSpace=wrap;html=1;" vertex="1" parent="1">
          <mxGeometry x="110" y="270" width="190" height="60" as="geometry" />
        </mxCell>
        <mxCell id="XbdNVZJF1_j_4Jo6nYeP-4" value="" style="edgeStyle=orthogonalEdgeStyle;rounded=0;orthogonalLoop=1;jettySize=auto;html=1;fontSize=20;" edge="1" parent="1" source="XbdNVZJF1_j_4Jo6nYeP-3" target="XbdNVZJF1_j_4Jo6nYeP-1">
          <mxGeometry relative="1" as="geometry" />
        </mxCell>
        <mxCell id="XbdNVZJF1_j_4Jo6nYeP-3" value="开始" style="rounded=1;whiteSpace=wrap;html=1;fontSize=20;" vertex="1" parent="1">
          <mxGeometry x="145" y="170" width="120" height="60" as="geometry" />
        </mxCell>
        <mxCell id="XbdNVZJF1_j_4Jo6nYeP-8" value="" style="edgeStyle=orthogonalEdgeStyle;rounded=0;orthogonalLoop=1;jettySize=auto;html=1;fontSize=20;" edge="1" parent="1" source="XbdNVZJF1_j_4Jo6nYeP-5" target="XbdNVZJF1_j_4Jo6nYeP-7">
          <mxGeometry relative="1" as="geometry" />
        </mxCell>
        <mxCell id="XbdNVZJF1_j_4Jo6nYeP-5" value="&lt;span style=&quot;font-size: 20px;&quot;&gt;选择借取操作，并选择需要借去的装备&lt;/span&gt;" style="rounded=0;whiteSpace=wrap;html=1;" vertex="1" parent="1">
          <mxGeometry x="110" y="370" width="190" height="60" as="geometry" />
        </mxCell>
        <mxCell id="XbdNVZJF1_j_4Jo6nYeP-10" value="" style="edgeStyle=orthogonalEdgeStyle;rounded=0;orthogonalLoop=1;jettySize=auto;html=1;fontSize=20;" edge="1" parent="1" source="XbdNVZJF1_j_4Jo6nYeP-7" target="XbdNVZJF1_j_4Jo6nYeP-9">
          <mxGeometry relative="1" as="geometry" />
        </mxCell>
        <mxCell id="XbdNVZJF1_j_4Jo6nYeP-7" value="&lt;span style=&quot;font-size: 20px;&quot;&gt;弹开相应柜门&lt;/span&gt;" style="rounded=0;whiteSpace=wrap;html=1;" vertex="1" parent="1">
          <mxGeometry x="110" y="470" width="190" height="60" as="geometry" />
        </mxCell>
        <mxCell id="XbdNVZJF1_j_4Jo6nYeP-12" value="" style="edgeStyle=orthogonalEdgeStyle;rounded=0;orthogonalLoop=1;jettySize=auto;html=1;fontSize=20;" edge="1" parent="1" source="XbdNVZJF1_j_4Jo6nYeP-9" target="XbdNVZJF1_j_4Jo6nYeP-11">
          <mxGeometry relative="1" as="geometry" />
        </mxCell>
        <mxCell id="XbdNVZJF1_j_4Jo6nYeP-9" value="&lt;span style=&quot;font-size: 20px;&quot;&gt;取出本次需要的装备&lt;/span&gt;" style="rounded=0;whiteSpace=wrap;html=1;" vertex="1" parent="1">
          <mxGeometry x="110" y="580" width="190" height="60" as="geometry" />
        </mxCell>
        <mxCell id="XbdNVZJF1_j_4Jo6nYeP-20" value="" style="edgeStyle=orthogonalEdgeStyle;rounded=0;orthogonalLoop=1;jettySize=auto;html=1;fontSize=20;" edge="1" parent="1" source="XbdNVZJF1_j_4Jo6nYeP-11" target="XbdNVZJF1_j_4Jo6nYeP-19">
          <mxGeometry relative="1" as="geometry" />
        </mxCell>
        <mxCell id="XbdNVZJF1_j_4Jo6nYeP-22" value="" style="edgeStyle=orthogonalEdgeStyle;rounded=0;orthogonalLoop=1;jettySize=auto;html=1;fontSize=20;" edge="1" parent="1" source="XbdNVZJF1_j_4Jo6nYeP-11" target="XbdNVZJF1_j_4Jo6nYeP-21">
          <mxGeometry relative="1" as="geometry" />
        </mxCell>
        <mxCell id="XbdNVZJF1_j_4Jo6nYeP-23" value="异常" style="edgeLabel;html=1;align=center;verticalAlign=middle;resizable=0;points=[];fontSize=20;" vertex="1" connectable="0" parent="XbdNVZJF1_j_4Jo6nYeP-22">
          <mxGeometry x="-0.2727" y="1" relative="1" as="geometry">
            <mxPoint as="offset" />
          </mxGeometry>
        </mxCell>
        <mxCell id="XbdNVZJF1_j_4Jo6nYeP-11" value="验证是否正确取出" style="rhombus;whiteSpace=wrap;html=1;fontSize=20;" vertex="1" parent="1">
          <mxGeometry x="100" y="730" width="210" height="150" as="geometry" />
        </mxCell>
        <mxCell id="XbdNVZJF1_j_4Jo6nYeP-17" value="结束" style="rounded=1;whiteSpace=wrap;html=1;fontSize=20;" vertex="1" parent="1">
          <mxGeometry x="145" y="1020" width="120" height="60" as="geometry" />
        </mxCell>
        <mxCell id="XbdNVZJF1_j_4Jo6nYeP-28" value="" style="edgeStyle=orthogonalEdgeStyle;rounded=0;orthogonalLoop=1;jettySize=auto;html=1;fontSize=20;" edge="1" parent="1" source="XbdNVZJF1_j_4Jo6nYeP-19" target="XbdNVZJF1_j_4Jo6nYeP-17">
          <mxGeometry relative="1" as="geometry" />
        </mxCell>
        <mxCell id="XbdNVZJF1_j_4Jo6nYeP-19" value="&lt;span style=&quot;font-size: 20px;&quot;&gt;关闭柜门&lt;/span&gt;" style="rounded=0;whiteSpace=wrap;html=1;" vertex="1" parent="1">
          <mxGeometry x="110" y="920" width="190" height="60" as="geometry" />
        </mxCell>
        <mxCell id="XbdNVZJF1_j_4Jo6nYeP-30" value="" style="edgeStyle=orthogonalEdgeStyle;rounded=0;orthogonalLoop=1;jettySize=auto;html=1;fontSize=20;" edge="1" parent="1" source="XbdNVZJF1_j_4Jo6nYeP-21" target="XbdNVZJF1_j_4Jo6nYeP-25">
          <mxGeometry relative="1" as="geometry" />
        </mxCell>
        <mxCell id="XbdNVZJF1_j_4Jo6nYeP-33" value="" style="edgeStyle=orthogonalEdgeStyle;rounded=0;orthogonalLoop=1;jettySize=auto;html=1;fontSize=20;" edge="1" parent="1" source="XbdNVZJF1_j_4Jo6nYeP-21" target="XbdNVZJF1_j_4Jo6nYeP-31">
          <mxGeometry relative="1" as="geometry" />
        </mxCell>
        <mxCell id="XbdNVZJF1_j_4Jo6nYeP-21" value="&lt;span style=&quot;font-size: 20px;&quot;&gt;屏幕上提示本次取出异常，提示未按需求借出&lt;/span&gt;" style="rounded=0;whiteSpace=wrap;html=1;" vertex="1" parent="1">
          <mxGeometry x="420" y="762.5" width="210" height="85" as="geometry" />
        </mxCell>
        <mxCell id="XbdNVZJF1_j_4Jo6nYeP-29" value="" style="edgeStyle=orthogonalEdgeStyle;rounded=0;orthogonalLoop=1;jettySize=auto;html=1;fontSize=20;" edge="1" parent="1" source="XbdNVZJF1_j_4Jo6nYeP-25" target="XbdNVZJF1_j_4Jo6nYeP-26">
          <mxGeometry relative="1" as="geometry" />
        </mxCell>
        <mxCell id="XbdNVZJF1_j_4Jo6nYeP-25" value="&lt;span style=&quot;font-size: 20px;&quot;&gt;用户无视提示，关门&lt;/span&gt;" style="rounded=0;whiteSpace=wrap;html=1;" vertex="1" parent="1">
          <mxGeometry x="420" y="890" width="210" height="85" as="geometry" />
        </mxCell>
        <mxCell id="XbdNVZJF1_j_4Jo6nYeP-27" style="edgeStyle=orthogonalEdgeStyle;rounded=0;orthogonalLoop=1;jettySize=auto;html=1;entryX=1;entryY=0.5;entryDx=0;entryDy=0;fontSize=20;" edge="1" parent="1" source="XbdNVZJF1_j_4Jo6nYeP-26" target="XbdNVZJF1_j_4Jo6nYeP-17">
          <mxGeometry relative="1" as="geometry" />
        </mxCell>
        <mxCell id="XbdNVZJF1_j_4Jo6nYeP-26" value="&lt;span style=&quot;font-size: 20px;&quot;&gt;记录本次异常&lt;/span&gt;" style="rounded=0;whiteSpace=wrap;html=1;" vertex="1" parent="1">
          <mxGeometry x="420" y="1007.5" width="210" height="85" as="geometry" />
        </mxCell>
        <mxCell id="XbdNVZJF1_j_4Jo6nYeP-32" style="edgeStyle=orthogonalEdgeStyle;rounded=0;orthogonalLoop=1;jettySize=auto;html=1;fontSize=20;entryX=1;entryY=0.5;entryDx=0;entryDy=0;exitX=0.5;exitY=0;exitDx=0;exitDy=0;" edge="1" parent="1" source="XbdNVZJF1_j_4Jo6nYeP-31" target="XbdNVZJF1_j_4Jo6nYeP-9">
          <mxGeometry relative="1" as="geometry">
            <mxPoint x="525" y="560" as="targetPoint" />
          </mxGeometry>
        </mxCell>
        <mxCell id="XbdNVZJF1_j_4Jo6nYeP-31" value="&lt;span style=&quot;font-size: 20px;&quot;&gt;用户检查拿取物品，按操作提示进行规范拿取&lt;/span&gt;" style="rounded=0;whiteSpace=wrap;html=1;" vertex="1" parent="1">
          <mxGeometry x="420" y="630" width="210" height="85" as="geometry" />
        </mxCell>
      </root>
    </mxGraphModel>
  </diagram>
</mxfile>
